<?xml version="1.0" standalone="no"?>
<!DOCTYPE svg PUBLIC "-//W3C//DTD SVG 20010904//EN"
 "http://www.w3.org/TR/2001/REC-SVG-20010904/DTD/svg10.dtd">
<svg version="1.0" xmlns="http://www.w3.org/2000/svg"
 width="200.000000pt" height="200.000000pt" viewBox="0 0 200.000000 200.000000"
 preserveAspectRatio="xMidYMid meet">

<g transform="translate(0.000000,200.000000) scale(0.100000,-0.100000)"
fill="#fff" stroke="none">
<path d="M941 1319 c-98 -19 -189 -88 -230 -172 -94 -195 9 -411 221 -463 63
-16 73 -16 135 0 130 32 218 119 249 248 16 63 16 73 0 135 -43 175 -207 286
-375 252z m193 -59 c94 -48 148 -135 154 -248 4 -66 1 -79 -27 -137 -36 -72
-72 -107 -149 -143 -45 -20 -65 -23 -125 -20 -80 4 -125 22 -184 72 -82 71
-115 205 -78 317 23 67 101 149 165 172 67 25 182 18 244 -13z"/>
<path d="M976 1184 c-3 -9 -6 -66 -6 -129 0 -88 3 -115 15 -125 12 -10 18 -10
30 0 12 10 15 37 15 125 0 126 -4 145 -30 145 -10 0 -21 -7 -24 -16z"/>
<path d="M975 864 c-19 -20 -16 -43 8 -58 37 -23 77 35 41 61 -23 17 -29 16
-49 -3z"/>
</g>
</svg>
