<?xml version="1.0" standalone="no"?>
<!DOCTYPE svg PUBLIC "-//W3C//DTD SVG 20010904//EN"
 "http://www.w3.org/TR/2001/REC-SVG-20010904/DTD/svg10.dtd">
<svg version="1.0" xmlns="http://www.w3.org/2000/svg"
 width="191.000000pt" height="99.000000pt" viewBox="0 0 191.000000 99.000000"
 preserveAspectRatio="xMidYMid meet">

<g transform="translate(0.000000,99.000000) scale(0.100000,-0.100000)"
fill="#fff" stroke="none">
<path d="M650 943 c0 -5 -11 -96 -25 -203 -14 -107 -25 -203 -25 -212 0 -16
11 -18 88 -18 l88 0 59 60 59 60 76 0 76 0 59 -60 59 -60 88 0 c77 0 88 2 88
18 0 9 -11 105 -25 212 -14 107 -25 198 -25 203 0 4 -53 7 -117 7 l-117 0 -43
-42 -43 -42 -43 42 -43 42 -117 0 c-64 0 -117 -3 -117 -7z m273 -105 l47 -53
48 53 48 53 89 -3 89 -3 18 -140 c24 -198 26 -185 -23 -185 -37 0 -49 7 -110
65 l-69 65 -90 0 -90 0 -69 -65 c-61 -58 -73 -65 -110 -65 -26 0 -41 5 -41 13
0 19 32 290 36 305 2 8 30 12 91 12 l88 0 48 -52z"/>
<path d="M1150 765 c-32 -33 -33 -36 -17 -52 16 -17 19 -16 53 18 34 34 34 36
16 52 -17 16 -20 15 -52 -18z"/>
<path d="M70 255 l0 -185 25 0 25 0 0 185 0 185 -25 0 -25 0 0 -185z"/>
<path d="M960 420 c0 -16 7 -20 30 -20 l30 0 2 -162 c3 -160 3 -163 25 -166
22 -3 23 -2 25 160 l3 163 33 3 c24 2 32 8 32 23 0 17 -8 19 -90 19 -83 0 -90
-1 -90 -20z"/>
<path d="M180 215 l0 -145 25 0 24 0 3 123 3 122 25 0 25 0 3 -122 3 -123 24
0 25 0 0 135 c0 123 -2 135 -19 145 -26 14 -64 13 -79 -2 -9 -9 -12 -9 -12 0
0 7 -11 12 -25 12 l-25 0 0 -145z"/>
<path d="M374 343 c3 -10 15 -72 26 -138 12 -66 24 -123 26 -127 3 -5 20 -8
38 -8 l34 0 21 118 c12 64 24 129 27 145 5 24 3 27 -19 27 -28 0 -29 -2 -48
-133 -7 -48 -16 -84 -19 -80 -4 4 -13 46 -19 93 -16 115 -18 120 -47 120 -19
0 -24 -4 -20 -17z"/>
<path d="M596 344 c-13 -12 -16 -39 -16 -127 0 -62 4 -118 9 -126 12 -18 102
-26 130 -12 14 8 21 21 21 41 0 25 -4 30 -25 30 -19 0 -25 -5 -25 -21 0 -16
-5 -20 -27 -17 -25 3 -28 7 -31 46 l-3 42 62 0 61 0 -4 66 c-3 50 -9 70 -23
80 -26 19 -110 18 -129 -2z m94 -64 c0 -38 -2 -40 -30 -40 -27 0 -30 3 -30 33
0 40 6 47 37 47 20 0 23 -5 23 -40z"/>
<path d="M806 347 c-14 -10 -16 -25 -14 -77 l3 -65 45 -5 45 -5 0 -40 c0 -34
-3 -40 -22 -43 -18 -3 -23 2 -23 17 0 16 -6 21 -25 21 -21 0 -25 -5 -25 -30 0
-34 23 -50 72 -50 55 0 78 23 78 79 0 58 -15 79 -60 83 -33 3 -35 5 -38 46 -3
37 -1 42 18 42 13 0 24 -8 27 -20 7 -26 53 -28 53 -2 0 38 -29 62 -74 62 -23
0 -50 -6 -60 -13z"/>
<path d="M1188 349 c-16 -9 -18 -26 -18 -134 0 -140 3 -145 77 -145 48 0 83
23 83 56 0 19 -5 24 -24 24 -15 0 -26 -7 -29 -20 -3 -14 -14 -20 -31 -20 -24
0 -26 3 -26 45 l0 45 55 0 55 0 0 64 c0 80 -13 96 -78 96 -26 0 -55 -5 -64
-11z m92 -69 c0 -38 -2 -40 -30 -40 -28 0 -30 2 -30 40 0 38 2 40 30 40 28 0
30 -2 30 -40z"/>
<path d="M1386 338 c-12 -17 -16 -48 -16 -125 0 -131 8 -143 102 -140 l63 2 0
140 0 140 -67 2 c-59 3 -69 0 -82 -19z m92 -120 c-3 -95 -4 -103 -23 -103 -19
0 -20 8 -23 103 l-3 102 26 0 26 0 -3 -102z"/>
<path d="M1590 215 l0 -145 25 0 24 0 3 123 3 122 25 0 25 0 3 -122 c3 -123 3
-123 27 -123 24 0 24 0 27 123 l3 122 25 0 25 0 3 -122 3 -123 24 0 25 0 0
129 c0 150 -7 167 -69 157 -46 -8 -49 -8 -89 0 -20 4 -38 2 -47 -6 -10 -9 -15
-9 -15 -1 0 6 -11 11 -25 11 l-25 0 0 -145z"/>
</g>
</svg>
